<svg xmlns="http://www.w3.org/2000/svg" width="1024" height="1024" viewBox="0 0 1024 1024">
<g>
<path d="M 548.31 753.58 C539.01,755.05 502.06,756.33 495.50,755.42 C493.85,755.19 488.23,754.52 483.00,753.94 C470.86,752.59 443.59,745.95 431.14,741.31 C386.32,724.60 344.28,693.75 317.62,658.00 C306.40,642.96 290.00,614.56 290.00,610.18 C290.00,609.70 292.59,610.19 295.75,611.26 C301.41,613.18 311.78,613.29 317.60,611.50 C319.30,610.97 319.95,611.47 321.06,614.17 C321.81,616.00 325.89,622.70 330.13,629.05 C341.94,646.76 353.34,656.60 372.30,665.48 C392.37,674.88 410.85,676.24 425.91,669.41 C431.61,666.83 439.17,661.06 454.33,647.71 C472.06,632.09 484.39,624.66 498.87,620.85 C508.73,618.26 526.60,618.01 536.24,620.34 C556.35,625.19 572.88,640.62 571.82,653.56 C571.58,656.49 570.91,657.75 569.11,658.64 C565.96,660.20 564.51,659.53 562.09,655.42 C560.36,652.49 554.80,648.02 552.88,648.00 C552.53,648.00 552.04,650.19 551.79,652.87 C551.00,661.04 545.11,667.00 539.27,665.53 C537.26,665.03 537.11,664.67 538.09,662.83 C539.61,659.99 537.72,653.62 534.75,651.54 C526.34,645.65 516.10,657.95 518.92,670.55 C521.19,680.66 530.66,691.19 542.98,697.29 C548.99,700.26 550.21,700.50 559.56,700.50 C569.43,700.50 569.84,700.41 578.26,696.23 C587.97,691.42 591.34,688.05 598.33,676.18 C606.33,662.60 610.97,657.62 619.57,653.37 C626.23,650.08 628.17,649.57 634.37,649.54 C640.35,649.51 642.46,649.98 647.46,652.50 C654.24,655.92 657.31,659.48 656.83,663.37 L 656.50 666.04 L 652.75 663.49 L 649.00 660.93 L 649.00 664.42 C649.00,667.93 647.24,673.00 646.02,673.00 C645.66,673.00 644.59,671.36 643.63,669.35 C641.78,665.47 641.48,665.56 638.23,671.00 C636.64,673.67 636.39,674.94 637.17,676.35 C638.34,678.43 645.44,681.94 648.55,681.98 C651.23,682.01 673.84,660.52 682.54,649.68 C690.64,639.58 699.49,626.67 704.43,617.75 L 708.17 611.00 L 724.14 611.00 L 714.88 593.44 L 718.48 587.47 C720.46,584.19 722.73,579.25 723.53,576.50 C725.94,568.15 729.86,548.07 731.13,537.49 L 732.33 527.50 L 737.67 522.08 C740.60,519.09 743.00,516.12 743.00,515.48 C743.00,514.84 742.10,513.50 741.00,512.50 C738.38,510.12 738.51,509.17 742.04,505.04 C743.67,503.13 745.00,501.00 745.00,500.29 C745.00,499.58 742.19,496.93 738.75,494.40 C735.31,491.88 732.35,489.67 732.18,489.50 C732.00,489.33 732.63,487.00 733.58,484.33 C736.01,477.48 734.96,471.48 730.39,466.14 C727.77,463.08 726.15,459.53 724.06,452.26 C703.97,382.34 649.01,326.59 578.96,305.03 C553.17,297.10 524.95,293.85 499.57,295.90 C452.93,299.67 415.37,313.92 378.50,341.83 C369.92,348.33 346.40,372.17 339.85,381.00 C314.22,415.57 300.21,451.45 295.94,493.50 C294.78,504.89 295.09,525.22 296.62,537.61 L 297.24 542.71 L 291.73 545.87 C285.60,549.38 279.79,555.28 277.28,560.54 C276.37,562.44 275.33,564.00 274.96,564.00 C274.15,564.00 271.34,547.00 270.01,534.00 C262.92,464.87 289.31,391.67 339.29,341.80 C368.51,312.64 400.45,292.92 437.76,281.00 C506.10,259.15 580.06,267.39 640.04,303.53 C702.43,341.11 743.95,401.89 756.18,473.50 C759.21,491.23 759.45,528.37 756.65,546.50 C752.58,572.80 744.21,598.89 732.30,622.33 C696.65,692.54 628.91,740.86 548.31,753.58 ZM 522.45 448.33 C484.26,449.24 366.00,449.18 366.00,448.25 C366.01,447.20 387.54,421.99 411.50,394.99 C418.10,387.55 431.60,372.25 441.50,360.99 C461.85,337.84 470.00,329.00 470.98,329.00 C471.35,329.00 474.07,332.04 477.03,335.75 C486.41,347.53 493.13,355.00 494.33,354.99 C495.41,354.99 498.95,351.93 521.95,331.14 C536.91,317.61 549.21,307.00 549.93,307.00 C550.32,307.00 553.62,311.39 557.27,316.75 C564.37,327.19 579.03,346.03 596.00,366.54 C601.78,373.51 606.92,379.96 607.44,380.86 C608.29,382.34 608.18,382.35 606.24,381.00 C599.43,376.22 557.60,342.72 552.91,338.29 C549.83,335.38 547.03,333.00 546.67,333.00 C545.68,333.00 549.95,341.63 555.25,350.35 L 560.03 358.21 L 557.89 364.09 C554.92,372.22 555.60,378.19 560.35,385.89 C562.36,389.14 564.00,392.11 564.00,392.49 C564.00,393.54 556.14,392.00 550.18,389.78 C543.98,387.48 533.66,378.34 528.83,370.88 C527.09,368.20 525.48,366.19 525.25,366.42 C524.49,367.18 532.08,399.45 533.54,401.69 C534.32,402.89 539.49,408.69 545.02,414.57 C550.55,420.45 554.85,425.49 554.57,425.77 C553.60,426.73 543.13,420.72 534.35,414.16 C516.36,400.70 499.92,382.92 483.60,359.25 C479.34,353.06 475.46,348.00 474.99,348.00 C473.19,348.00 470.72,363.12 471.33,370.40 C472.59,385.21 477.44,394.60 489.50,405.58 C494.17,409.84 498.00,413.72 498.00,414.21 C498.00,414.69 491.92,411.88 484.50,407.96 L 471.00 400.84 L 471.00 403.52 C471.00,410.53 477.44,427.95 482.45,434.52 C485.23,438.17 484.15,437.93 524.95,443.93 L 550.39 447.67 ZM 438.89 667.81 C435.93,669.54 433.98,670.97 434.56,670.98 C436.76,671.02 453.04,662.05 463.58,654.99 C476.55,646.29 484.54,642.39 492.26,640.96 C501.95,639.17 509.33,642.41 510.66,649.03 C511.35,652.52 512.28,652.72 515.00,650.00 C518.69,646.31 516.45,638.48 510.81,635.35 C508.62,634.14 508.72,634.07 512.57,634.04 C525.83,633.92 540.95,644.60 542.66,655.29 C543.17,658.44 543.48,658.89 544.24,657.54 C546.78,653.00 546.82,650.20 544.42,645.03 C542.33,640.51 542.25,639.93 543.77,640.35 C544.72,640.61 547.30,641.12 549.50,641.49 C554.56,642.32 561.22,646.16 563.83,649.74 C567.05,654.16 567.29,651.78 564.22,645.90 C557.24,632.55 535.42,623.04 514.62,624.29 C493.32,625.56 476.84,633.90 455.18,654.37 C449.19,660.04 441.86,666.08 438.89,667.81 ZM 551.53 720.89 C559.89,722.10 572.88,722.21 571.05,721.05 C570.25,720.55 567.32,719.83 564.55,719.47 C550.24,717.58 534.71,712.69 524.06,706.69 C515.76,702.03 505.93,691.74 501.91,683.53 C499.02,677.60 498.50,675.49 498.50,669.53 C498.50,665.66 498.89,661.43 499.36,660.12 C499.93,658.55 499.87,657.96 499.18,658.39 C498.62,658.74 497.39,661.33 496.45,664.15 C494.08,671.28 494.87,681.18 498.39,688.37 C505.36,702.61 530.14,717.77 551.53,720.89 ZM 487.81 720.62 C497.73,724.95 498.86,724.89 491.44,720.43 C483.91,715.89 477.47,710.99 468.00,702.58 C463.88,698.91 457.58,694.47 454.02,692.71 C448.04,689.75 446.66,689.48 436.02,689.19 C429.68,689.02 421.35,689.27 417.50,689.76 L 410.50 690.64 L 419.50 691.33 C440.85,692.99 450.35,696.22 463.50,706.28 C472.15,712.90 477.90,716.29 487.81,720.62 ZM 598.29 684.83 C597.38,686.30 600.66,683.39 605.57,678.37 C615.02,668.71 620.25,665.34 627.33,664.37 C631.18,663.84 631.91,664.07 633.72,666.38 C635.68,668.86 635.80,668.89 636.30,666.95 C636.89,664.71 633.69,661.04 631.06,660.94 C630.17,660.90 630.55,660.46 631.94,659.90 C635.30,658.56 639.37,659.64 642.43,662.70 C645.19,665.46 645.71,664.66 643.84,660.54 C642.26,657.08 643.02,656.67 647.91,658.36 C651.22,659.50 651.85,659.52 650.97,658.47 C649.16,656.28 641.01,654.00 635.00,654.00 C621.74,654.00 613.32,659.51 604.95,673.68 C602.20,678.34 599.20,683.36 598.29,684.83 ZM 524.87 725.58 C525.34,725.77 525.78,725.95 526.18,726.12 C529.86,727.65 530.75,728.02 530.95,727.79 C531.02,727.72 531.01,727.58 531.00,727.40 C531.00,727.34 531.00,727.28 531.00,727.21 C531.00,726.77 528.41,725.15 525.25,723.61 C516.65,719.40 508.24,713.05 500.74,705.11 C493.79,697.74 490.00,691.45 486.81,682.00 L 484.96 676.50 L 485.32 684.50 C485.79,695.05 488.62,700.61 497.91,709.21 C504.77,715.56 513.46,720.83 524.87,725.58 ZM 444.00 714.08 C450.93,717.64 451.32,717.62 447.04,713.96 C445.14,712.33 439.06,708.74 433.54,705.97 C422.94,700.65 412.44,697.96 402.66,698.05 L 397.50 698.10 L 406.50 700.44 C417.42,703.28 436.49,710.22 444.00,714.08 ZM 393.00 682.26 C399.34,683.44 409.89,682.89 416.39,681.03 C424.11,678.82 426.62,677.38 420.50,678.66 C414.02,680.02 398.22,679.26 388.04,677.09 C382.84,675.99 378.38,675.28 378.13,675.53 C377.54,676.12 389.78,681.66 393.00,682.26 ZM 567.00 711.10 C566.10,711.60 569.08,711.95 574.50,711.97 C583.45,711.99 596.51,710.24 607.00,707.60 L 612.50 706.22 L 606.00 706.11 C602.42,706.05 595.87,706.64 591.43,707.42 C586.99,708.20 580.01,709.16 575.93,709.55 C571.84,709.94 567.83,710.63 567.00,711.10 ZM 579.60 701.67 L 575.50 703.03 L 580.83 702.47 C588.90,701.62 596.34,698.40 601.99,693.32 C606.71,689.07 610.00,684.47 610.00,682.11 C610.00,681.57 607.78,683.46 605.07,686.33 C600.13,691.55 587.97,698.88 579.60,701.67 ZM 442.85 676.47 C439.59,677.88 439.57,677.92 442.17,677.96 C448.45,678.05 457.89,672.06 463.29,664.56 C464.99,662.20 463.49,662.95 455.80,668.32 C450.51,672.00 444.68,675.67 442.85,676.47 ZM 477.04 668.43 C477.06,669.02 478.17,667.23 479.52,664.45 C482.68,657.92 488.12,651.61 491.96,650.02 C493.63,649.32 495.00,648.36 495.00,647.88 C495.00,645.24 487.20,648.87 483.28,653.34 C480.52,656.48 476.93,665.17 477.04,668.43 ZM 459.00 711.89 C461.48,713.58 463.61,714.97 463.75,714.98 C464.85,715.06 463.01,713.34 456.89,708.55 C451.80,704.57 447.84,702.40 442.92,700.91 C439.14,699.76 435.47,699.03 434.77,699.29 C434.07,699.54 434.85,700.10 436.50,700.52 C440.50,701.55 453.40,708.06 459.00,711.89 ZM 633.19 688.97 C638.15,692.00 638.48,691.42 634.07,687.44 C631.90,685.48 629.46,682.00 628.64,679.69 C627.59,676.71 627.14,676.16 627.08,677.78 C626.94,681.73 629.75,686.88 633.19,688.97 Z" fill="rgb(19,46,91)"/>
<path d="M 518.03 522.49 C512.70,524.37 503.46,525.08 498.33,524.01 C473.26,518.75 467.84,486.17 489.33,469.93 C498.81,462.77 513.95,460.78 524.22,465.35 C537.27,471.15 543.75,485.55 539.56,499.46 C536.44,509.82 527.84,519.03 518.03,522.49 ZM 587.01 522.50 C582.65,524.03 573.63,525.02 570.00,524.35 C558.20,522.18 550.58,516.16 547.59,506.64 C542.68,491.04 550.25,473.33 564.79,466.38 C572.98,462.46 585.44,461.84 592.77,464.99 C607.26,471.23 613.81,488.55 607.21,503.17 C602.83,512.86 596.11,519.29 587.01,522.50 ZM 572.66 603.21 C567.48,605.85 565.15,606.41 558.00,606.70 C543.43,607.30 533.82,601.99 528.95,590.65 C525.67,583.05 526.47,572.64 530.98,564.19 C534.86,556.91 539.34,552.65 546.61,549.32 C561.23,542.63 579.30,547.13 586.39,559.23 C595.39,574.57 589.05,594.84 572.66,603.21 ZM 453.15 519.85 C447.73,522.39 446.69,522.51 427.65,522.83 L 407.81 523.15 L 408.38 520.33 C408.70,518.77 410.79,506.48 413.03,493.00 C415.27,479.52 417.34,467.71 417.62,466.75 C418.08,465.18 419.77,465.00 434.32,465.01 C443.22,465.01 452.18,465.48 454.22,466.05 C459.95,467.64 466.19,472.90 469.00,478.51 C472.54,485.58 472.53,497.31 468.97,504.47 C465.66,511.14 460.00,516.64 453.15,519.85 ZM 640.16 603.65 C635.61,605.83 632.73,606.44 625.50,606.74 C617.16,607.09 616.05,606.90 610.31,604.13 C599.68,599.00 595.41,590.77 596.22,577.00 C596.73,568.53 598.94,563.29 604.71,556.90 C619.28,540.78 646.51,543.20 656.32,561.50 C659.60,567.62 659.39,579.60 655.86,587.12 C652.28,594.78 646.92,600.41 640.16,603.65 ZM 322.15 603.79 C315.05,607.04 303.03,607.78 295.64,605.43 C288.95,603.29 281.85,596.09 279.52,589.06 C274.42,573.71 282.22,556.29 297.25,549.42 C302.54,547.00 304.80,546.56 312.00,546.54 C322.44,546.52 327.85,548.82 334.33,556.03 C339.63,561.91 341.37,567.46 340.84,576.70 C340.14,588.80 333.33,598.67 322.15,603.79 ZM 499.77 604.47 C496.01,605.59 489.88,606.00 476.80,606.00 L 458.96 606.00 L 459.48 603.75 C459.76,602.51 461.79,590.47 464.00,577.00 C466.21,563.53 468.25,551.45 468.54,550.17 L 469.08 547.84 L 486.79 548.17 C506.86,548.55 509.44,549.31 516.28,556.89 C529.74,571.79 520.54,598.31 499.77,604.47 ZM 631.00 515.00 L 629.76 523.00 L 621.36 523.00 C613.16,523.00 612.97,522.95 613.48,520.75 C613.77,519.51 615.82,507.70 618.03,494.50 C620.25,481.30 622.31,469.26 622.61,467.75 L 623.16 465.00 L 640.12 465.00 C654.98,465.00 657.55,465.24 660.91,466.96 C668.77,470.96 671.83,477.31 670.67,487.16 C669.89,493.68 666.96,498.25 661.46,501.47 C659.01,502.91 657.00,504.34 657.00,504.64 C657.00,504.95 658.80,509.05 661.00,513.74 C663.20,518.44 665.00,522.44 665.00,522.64 C665.00,522.84 661.28,523.00 656.72,523.00 L 648.45 523.00 L 644.17 514.38 C639.98,505.93 639.85,505.78 636.83,506.38 C635.13,506.72 633.41,507.00 633.00,507.00 C632.58,507.00 631.68,510.60 631.00,515.00 ZM 679.97 598.75 L 678.82 606.00 L 670.91 606.00 C663.15,606.00 663.00,605.95 663.00,603.51 C663.00,601.26 670.31,555.63 671.53,550.25 C672.03,548.02 672.23,548.00 689.06,548.00 C703.82,548.00 706.57,548.25 709.79,549.90 C719.17,554.71 722.18,563.24 718.42,574.29 C716.93,578.65 713.61,582.43 708.11,586.04 L 705.76 587.57 L 709.88 595.76 C712.15,600.27 714.00,604.42 714.00,604.98 C714.00,605.59 710.69,606.00 705.72,606.00 L 697.45 606.00 L 693.23 597.50 C689.13,589.23 688.92,589.00 685.48,589.00 L 685.33 589.00 C684.02,589.00 683.16,589.00 682.54,589.38 C681.33,590.12 681.00,592.31 679.97,598.75 ZM 359.62 516.00 L 358.40 522.50 L 350.32 522.79 L 342.24 523.08 L 343.14 518.29 C344.82,509.38 352.00,466.95 352.00,465.97 C352.00,465.44 355.04,465.00 358.77,465.00 L 365.53 465.00 L 369.56 471.25 C371.78,474.69 376.04,481.42 379.04,486.20 C382.04,490.99 384.75,494.92 385.05,494.95 C385.35,494.98 386.70,488.14 388.05,479.75 L 390.51 464.50 L 397.41 464.20 C401.20,464.04 404.85,464.11 405.53,464.37 C406.46,464.73 405.80,470.35 402.89,487.17 C400.76,499.45 398.50,512.54 397.86,516.25 L 396.71 523.00 L 383.32 523.00 L 374.02 507.37 C367.72,496.79 364.48,492.19 363.96,493.12 C363.54,493.88 362.67,497.88 362.02,502.00 C361.37,506.12 360.30,512.42 359.62,516.00 ZM 717.35 520.88 C711.27,523.85 702.02,524.60 696.50,522.56 C690.79,520.45 686.30,515.21 685.47,509.67 C684.33,502.05 687.24,496.59 695.13,491.60 L 697.75 489.93 L 695.88 486.26 C693.41,481.42 693.51,478.24 696.30,472.96 C699.33,467.24 705.26,464.00 712.71,464.00 C718.94,464.00 722.69,465.66 726.38,470.04 C731.13,475.68 729.59,483.64 722.55,489.82 C718.44,493.43 718.39,493.67 721.03,497.00 L 723.01 499.50 L 725.87 496.08 L 728.72 492.67 L 733.36 496.55 C735.91,498.68 737.98,500.67 737.96,500.96 C737.94,501.26 736.39,503.30 734.51,505.49 L 731.09 509.49 L 733.76 512.27 L 736.42 515.05 L 726.97 524.50 L 722.19 518.51 ZM 382.39 605.58 C374.46,607.97 365.24,607.45 358.93,604.25 C352.51,601.00 349.55,596.97 347.97,589.36 C346.76,583.51 346.90,582.15 351.12,559.32 L 353.19 548.15 L 361.10 547.82 C365.92,547.63 369.00,547.89 368.99,548.50 C368.99,549.05 367.86,556.03 366.50,564.00 C363.15,583.59 363.21,586.36 367.05,590.20 C369.73,592.88 370.59,593.18 374.20,592.70 C382.34,591.61 383.99,588.03 388.03,562.75 L 390.39 548.00 L 398.70 548.00 C403.26,548.00 407.00,548.15 407.00,548.34 C407.00,550.16 401.54,579.89 400.37,584.46 C397.40,596.02 391.62,602.80 382.39,605.58 ZM 444.57 561.50 L 436.67 606.00 L 419.91 606.00 L 420.49 602.75 C424.64,579.71 427.65,562.46 427.55,562.29 C427.48,562.18 423.50,562.01 418.71,561.92 C413.92,561.82 410.00,561.50 410.00,561.20 C410.00,560.91 410.50,557.81 411.10,554.33 L 412.21 548.00 L 463.61 548.00 L 462.65 554.46 L 461.68 560.93 L 453.13 561.21 ZM 331.00 522.67 C331.00,522.85 327.40,523.00 323.00,523.00 C316.32,523.00 315.00,522.74 315.00,521.39 C315.00,520.51 316.76,510.04 318.92,498.14 C321.08,486.24 323.14,474.48 323.49,472.00 C324.09,467.87 324.29,465.87 325.39,464.90 C326.43,463.99 328.27,463.99 332.01,464.00 C332.35,464.00 332.70,464.00 333.07,464.00 C338.75,464.00 341.00,464.35 340.99,465.25 C340.98,465.94 338.73,479.06 335.99,494.42 C333.25,509.77 331.00,522.48 331.00,522.67 ZM 499.30 508.04 C511.06,515.21 526.82,501.18 522.98,486.94 C519.54,474.15 501.52,474.23 494.97,487.05 C491.06,494.72 493.02,504.21 499.30,508.04 ZM 568.76 508.25 C578.17,514.08 591.73,505.26 592.78,492.60 C593.97,478.28 579.38,471.76 568.63,481.81 C560.99,488.95 561.07,503.48 568.76,508.25 ZM 302.27 591.52 C306.91,593.53 310.93,593.29 315.47,590.72 C325.78,584.88 328.04,570.42 319.73,563.43 C316.92,561.06 315.95,560.83 310.32,561.19 C305.03,561.53 303.54,562.06 300.89,564.55 C296.83,568.37 295.00,572.77 295.00,578.72 C295.01,584.62 297.82,589.59 302.27,591.52 ZM 551.27 591.57 C558.13,594.66 568.02,590.65 571.54,583.34 C572.59,581.14 573.39,577.26 573.41,574.28 C573.43,568.06 571.19,564.40 565.66,561.66 C562.44,560.05 561.31,559.96 557.11,560.97 C548.87,562.95 544.00,569.59 544.00,578.82 C544.01,584.60 546.84,589.57 551.27,591.57 ZM 618.89 591.00 C623.01,593.18 626.63,593.47 630.68,591.93 C642.59,587.42 646.17,567.76 636.03,562.52 C631.89,560.37 624.41,560.58 620.58,562.95 C610.80,569.00 609.77,586.18 618.89,591.00 ZM 427.01 508.75 C426.97,509.68 441.69,508.74 444.30,507.65 C452.27,504.32 456.84,494.13 453.87,486.32 C451.74,480.71 448.33,478.79 439.57,478.22 C435.40,477.96 432.00,478.13 431.99,478.62 C431.99,479.10 430.86,486.02 429.50,494.00 C428.14,501.98 427.01,508.61 427.01,508.75 ZM 478.36 589.70 C477.80,591.94 477.96,592.00 485.23,592.00 C497.60,592.00 504.27,586.86 505.70,576.22 C506.32,571.55 504.05,565.74 500.76,563.58 C498.11,561.84 483.00,560.16 483.00,561.60 C483.00,562.97 479.02,587.09 478.36,589.70 ZM 635.38 490.25 L 634.84 493.00 L 641.50 493.00 C647.52,493.00 648.43,492.72 651.08,490.08 C654.51,486.64 654.86,482.86 652.00,480.00 C650.42,478.42 648.67,478.00 643.61,478.00 L 637.23 478.00 L 636.58 482.75 C636.22,485.36 635.68,488.74 635.38,490.25 ZM 684.36 572.75 L 683.78 576.00 L 688.92 576.00 C697.95,576.00 703.00,572.64 703.00,566.62 C703.00,562.83 699.55,561.00 692.41,561.00 L 686.26 561.00 L 685.60 565.25 C685.24,567.59 684.68,570.96 684.36,572.75 ZM 705.23 511.31 C707.41,511.75 712.10,511.23 712.86,510.47 C713.30,510.03 709.78,504.42 706.99,501.13 C705.28,499.11 704.75,498.96 703.39,500.09 C702.51,500.82 701.38,502.51 700.87,503.84 C699.72,506.87 701.93,510.65 705.23,511.31 ZM 710.15 482.75 C712.14,484.74 717.00,480.73 717.00,477.10 C717.00,475.18 713.17,473.84 711.00,475.00 C708.77,476.19 708.26,480.86 710.15,482.75 Z" fill="rgb(180,16,45)"/>
</g>
</svg>
